# xmcd
#
# Track frame offsets:
#	150
#	12566
#	24412
#	37635
#	46387
#	59016
#	73122
#	85684
#	98187
#	109175
#	120401
#	131810
#	142507
#	153025
#	164785
#	176405
#	189233
#	200947
#	214647
#	223505
#	236761
#	247765
#	261730
#	273440
#	284511
#
# Disc length: 3963 seconds
# Revision: 2
# Processed by: cddbd v1.5.2PL0 Copyright (c) Steve Scherf et al.
# Submitted via: dBpowerAMP V12.0
#
DISCID=6c0f7919
DTITLE=Various Artist - Let Me Tell You About The Blues - Memphis
DYEAR=1953
DGENRE=Blues
TTITLE0=Charlie Booker - Walked All Night
TTITLE1=D.A. Hunt - Greyhound Blues
TTITLE2=Little Junior Parker - Feelin' Good
TTITLE3=William Stewart - County Farm blues
TTITLE4=Rufus Thomas - Tiger Man
TTITLE5=Boyd Gilmore - Believe I'll Settle Down
TTITLE6=Earl Hooker - Blue Guitar
TTITLE7=Pinetop Perkins - Pinetop's Boogie Woogie
TTITLE8=Little Milton - Beggin' My Baby
TTITLE9=Johnny O'Neal - Ugly Woman
TTITLE10=Joe Hill Louis - Hydramatic Woman
TTITLE11=Little Junior Parker - Mystery Train
TTITLE12=James Cotton - Straighten Up Baby
TTITLE13=Coy ''Hot Shot'' Love - Wolf Call Boogie
TTITLE14=Kenneth Banks - But High
TTITLE15=Billy Love - Way After Midnight
TTITLE16=Little Milton - Lookin' For My Baby
TTITLE17=James Cotton - Cotton Crop Blues
TTITLE18=Elvis Presley - That's All Right
TTITLE19=Pat Hare - I'm Gonna Murder My Baby
TTITLE20=Elvis Presley - Mystery Train
TTITLE21=Billy ''The Kid'' Emerson - When It Rains It Pours
TTITLE22=Dr Ross - The Boogie Disease
TTITLE23=Sammy Lewis - Willie Johnson - Feel So Worried
TTITLE24=Rosco Gordon - Cheese And Crackers
EXTD=
EXTT0=
EXTT1=
EXTT2=
EXTT3=
EXTT4=
EXTT5=
EXTT6=
EXTT7=
EXTT8=
EXTT9=
EXTT10=
EXTT11=
EXTT12=
EXTT13=
EXTT14=
EXTT15=
EXTT16=
EXTT17=
EXTT18=
EXTT19=
EXTT20=
EXTT21=
EXTT22=
EXTT23=
EXTT24=
PLAYORDER=
